<svg xmlns="http://www.w3.org/2000/svg" xmlns:xlink="http://www.w3.org/1999/xlink" fill="none" version="1.1" width="28.284270763397217" height="28.284270763397217" viewBox="0 0 28.284270763397217 28.284270763397217"><path d="M10.77778,14.505775421698608L10.77728,23.36395528169861L19.63636,23.36435678169861C19.837202,23.36435678169861,20,23.52715568169861,20,23.72799658169861Q20,23.72799658169861,20,24.55627638169861C20,24.757115381698608,19.837202,24.91991538169861,19.63636,24.91991538169861Q19.63636,24.91991538169861,10.77728,24.919415381698606L10.77778,33.778495381698605C10.77778,33.97933738169861,10.61498,34.14213538169861,10.414141,34.14213538169861Q10.414141,34.14213538169861,9.5858612,34.14213538169861C9.3850203,34.14213538169861,9.2222214,33.97933738169861,9.2222214,33.778495381698605Q9.2222214,33.778495381698605,9.2218199,24.919415381698606L0.36364004,24.91991538169861C0.1628,24.91991538169861,0,24.757115381698608,0,24.55627638169861Q0,24.55627638169861,0,23.72799658169861C0,23.52715568169861,0.1628,23.36435678169861,0.36364004,23.36435678169861Q0.36364004,23.36435678169861,9.2218199,23.36395528169861L9.2222214,14.505775421698608C9.2222214,14.30493538169861,9.3850203,14.142135381698608,9.5858612,14.142135381698608Q9.5858612,14.142135381698608,10.414141,14.142135381698608C10.61498,14.142135381698608,10.77778,14.30493538169861,10.77778,14.505775421698608Q10.77778,14.505775421698608,10.77778,14.505775421698608Z" fill-rule="evenodd" fill="#9CA3AF" fill-opacity="1" transform="matrix(0.7071067690849304,-0.7071067690849304,0.7071067690849304,0.7071067690849304,-9.999999657714582,4.142135723984026)"/></svg>