<svg xmlns="http://www.w3.org/2000/svg" xmlns:xlink="http://www.w3.org/1999/xlink" fill="none" version="1.1" width="16" height="16" viewBox="0 0 16 16"><defs><clipPath id="master_svg0_603_023620"><rect x="0" y="0" width="16" height="16" rx="8"/></clipPath></defs><g clip-path="url(#master_svg0_603_023620)"><rect x="0" y="0" width="16" height="16" rx="8" fill="#D1D1D1" fill-opacity="1"/><path d="M4.78871197,4.11422339L4.8149671000000005,4.13833037L8.058673899999999,7.3822761L11.1830392,4.25791094C11.3643341,4.074854419,11.6581774,4.068684779,11.8469958,4.24397016C12.0358143,4.41925552,12.0514746,4.7127465,11.8823814,4.90712976L11.858512900000001,4.9333849L8.733669800000001,8.057272900000001L11.8582735,11.1816387C12.0415335,11.3628445,12.0478754,11.6567979,11.872601,11.8457379C11.6973262,12.0346794,11.4037237,12.0503845,11.209293800000001,11.8812189L11.1830387,11.856873L8.058672900000001,8.7325082L4.81496626,11.976692199999999C4.63345253,12.1582565,4.34084383,12.1637383,4.15265597,11.989102800000001C3.96446795,11.8144665,3.948107202,11.522264,4.11562397,11.3277121L4.13973096,11.3014565L7.383676299999999,8.057272399999999L4.13996945,4.81356514C3.959723309,4.6318689,3.954838507,4.3403542,4.12889589,4.15272067C4.30295309,3.965087149,4.59401369,3.948104814,4.78871197,4.11422339Z" fill="#FFFFFF" fill-opacity="1" style="mix-blend-mode:passthrough"/></g></svg>