<svg xmlns="http://www.w3.org/2000/svg" xmlns:xlink="http://www.w3.org/1999/xlink" fill="none" version="1.1" width="315" height="169" viewBox="0 0 315 169"><defs><mask id="master_svg0_605_028739" style="mask-type:luminance" maskUnits="userSpaceOnUse" x="0" y="0" width="315" height="249.6764144897461"><path d="M0,0L315,0L315,169L0,169L0,0Z" fill="#FFFFFF" fill-opacity="1"/></mask><linearGradient x1="0.5" y1="0.01746314764022827" x2="0.5" y2="0.5" id="master_svg1_604_037628"><stop offset="0%" stop-color="#E5E9EF" stop-opacity="1"/><stop offset="100%" stop-color="#FFFFFF" stop-opacity="0"/></linearGradient><linearGradient x1="0.15998737514019012" y1="0.040625400841236115" x2="0.2598217005888581" y2="0.30175833010098796" id="master_svg2_605_028628"><stop offset="0%" stop-color="#D8D8D8" stop-opacity="1"/><stop offset="99.87016916275024%" stop-color="#D8D8D8" stop-opacity="1"/></linearGradient><linearGradient x1="0.8744454383850098" y1="0.059460632503032684" x2="0.8266782021204585" y2="0.3093498626737593" id="master_svg3_605_028678"><stop offset="0%" stop-color="#89F1D4" stop-opacity="1"/><stop offset="99.28571581840515%" stop-color="#4ED4AF" stop-opacity="1"/><stop offset="100%" stop-color="#74E2C4" stop-opacity="1"/></linearGradient><linearGradient x1="0.8744454383850098" y1="0.059460632503032684" x2="0.8118066216553624" y2="0.31351214184030135" id="master_svg4_605_028649"><stop offset="0%" stop-color="#E3E3E3" stop-opacity="1"/><stop offset="100%" stop-color="#EAEAEA" stop-opacity="1"/></linearGradient><linearGradient x1="0.054345402866601944" y1="0.06070341169834137" x2="0.5799994561260398" y2="1.0890669015164005" id="master_svg5_605_028671"><stop offset="4.87016960978508%" stop-color="#E8E9EA" stop-opacity="1"/><stop offset="100%" stop-color="#E4E6E9" stop-opacity="1"/></linearGradient><filter id="master_svg6_605_028666" filterUnits="objectBoundingBox" color-interpolation-filters="sRGB" x="-0.1038461694632785" y="-0.11698992297187537" width="1.207692338926557" height="1.3119731279250009"><feFlood flood-opacity="0" result="BackgroundImageFix"/><feColorMatrix in="SourceAlpha" type="matrix" values="0 0 0 0 0 0 0 0 0 0 0 0 0 0 0 0 0 0 127 0"/><feOffset dy="2" dx="0"/><feGaussianBlur stdDeviation="2"/><feColorMatrix type="matrix" values="0 0 0 0 0 0 0 0 0 0 0 0 0 0 0 0 0 0 0.10000000149011612 0"/><feBlend mode="normal" in2="BackgroundImageFix" result="effect1_dropShadow"/><feBlend mode="normal" in="SourceGraphic" in2="effect1_dropShadow" result="shape"/></filter><linearGradient x1="1" y1="0.5" x2="0.07650968269457147" y2="0.4504204766246591" id="master_svg7_605_028660"><stop offset="5.000000074505806%" stop-color="#F6F7F8" stop-opacity="1"/><stop offset="100%" stop-color="#F6F7F8" stop-opacity="1"/></linearGradient><linearGradient x1="0.37551116943359375" y1="0.09973021596670151" x2="0.39060884581537125" y2="0.9447250248748474" id="master_svg8_605_028692"><stop offset="3.441597893834114%" stop-color="#EFEFF0" stop-opacity="1"/><stop offset="94.9999988079071%" stop-color="#DCDDDE" stop-opacity="1"/></linearGradient><filter id="master_svg9_605_028658" filterUnits="objectBoundingBox" color-interpolation-filters="sRGB" x="-0.08573943272328605" y="-0.07831694921090096" width="1.171478865446572" height="1.234950847632703"><feFlood flood-opacity="0" result="BackgroundImageFix"/><feColorMatrix in="SourceAlpha" type="matrix" values="0 0 0 0 0 0 0 0 0 0 0 0 0 0 0 0 0 0 127 0"/><feOffset dy="2" dx="0"/><feGaussianBlur stdDeviation="1.5"/><feColorMatrix type="matrix" values="0 0 0 0 0 0 0 0 0 0 0 0 0 0 0 0 0 0 0.10000000149011612 0"/><feBlend mode="normal" in2="BackgroundImageFix" result="effect1_dropShadow"/><feBlend mode="normal" in="SourceGraphic" in2="effect1_dropShadow" result="shape"/></filter><linearGradient x1="1" y1="0.5" x2="0.07648491348665692" y2="0.44040983521067334" id="master_svga_605_028660"><stop offset="5.000000074505806%" stop-color="#F6F7F8" stop-opacity="1"/><stop offset="100%" stop-color="#F6F7F8" stop-opacity="1"/></linearGradient><linearGradient x1="0.8492423295974731" y1="0.06691209226846695" x2="0.6488132688720888" y2="0.664647586123792" id="master_svgb_605_028634"><stop offset="0%" stop-color="#D2D4D6" stop-opacity="1"/><stop offset="100%" stop-color="#BABCC1" stop-opacity="1"/></linearGradient><linearGradient x1="0.5" y1="0.3028964102268219" x2="0.2868849694012949" y2="1.0787980065067524" id="master_svgc_605_028708"><stop offset="4.155883938074112%" stop-color="#D7D8DA" stop-opacity="1"/><stop offset="100%" stop-color="#D7D8DA" stop-opacity="1"/></linearGradient><linearGradient x1="1" y1="0.5" x2="-0.0030314517832444776" y2="0.56513155202524" id="master_svgd_605_028717"><stop offset="0%" stop-color="#D7D8DA" stop-opacity="1"/><stop offset="100%" stop-color="#D7D8DA" stop-opacity="1"/></linearGradient><linearGradient x1="0.8992375731468201" y1="0.10339337587356567" x2="0.46197825470900294" y2="0.9810572557292766" id="master_svge_605_028699"><stop offset="0%" stop-color="#E4E6E9" stop-opacity="1"/><stop offset="100%" stop-color="#E4E6E9" stop-opacity="1"/></linearGradient><linearGradient x1="1" y1="0" x2="0.19555542079128146" y2="1.1382111705309037" id="master_svgf_605_028702"><stop offset="5.000000074505806%" stop-color="#DEE0E4" stop-opacity="1"/><stop offset="100%" stop-color="#DEE0E4" stop-opacity="1"/></linearGradient></defs><g mask="url(#master_svg0_605_028739)"><path d="M309.806579329834,178.21717819970704Q309.806579329834,179.97139719970704,309.62309932983396,181.72351119970705Q309.43962932983396,183.47562419970703,309.073179329834,185.22141219970703Q308.706659329834,186.96718619970704,308.158049329834,188.70241519970705Q307.609429329834,190.43765219970703,306.879999329834,192.15817219970702Q306.15056932983396,193.87869219970702,305.242059329834,195.58034519970704Q304.333579329834,197.28200519970704,303.248229329834,198.96069319970704Q302.162869329834,200.63938119970703,300.903259329834,202.29105419970705Q299.643669329834,203.94273419970705,298.212829329834,205.56343119970703Q296.781979329834,207.18412219970702,295.183379329834,208.76992219970703Q293.584769329834,210.35572219970703,291.82225932983397,211.90281219970703Q290.05971932983397,213.44990219970703,288.13750932983396,214.95456219970703Q286.215299329834,216.45920219970702,284.138059329834,217.91779219970704Q282.060789329834,219.37638219970705,279.83351932983396,220.78539219970702Q277.60625932983396,222.19440219970704,275.234309329834,223.55044219970705Q272.86235932983396,224.90647219970703,270.35143932983397,226.20626219970703Q267.840509329834,227.50605219970703,265.196679329834,228.74648219970703Q262.552849329834,229.98690219970703,259.782479329834,231.16497219970705Q257.01210932983395,232.34304219970704,254.121849329834,233.45591219970703Q251.231609329834,234.56878219970702,248.22846932983398,235.61376219970703Q245.22530932983398,236.65876219970704,242.11649932983397,237.63334219970704Q239.007689329834,238.60795219970703,235.800669329834,239.50980219970702Q232.59368932983398,240.41164219970702,229.29622932983398,241.23858219970703Q225.99877932983398,242.06551219970703,222.618799329834,242.81554219970704Q219.23883932983398,243.56556219970702,215.78450932983398,244.23688219970703Q212.33017932983398,244.90819219970703,208.809809329834,245.49918219970704Q205.28942932983398,246.09017219970704,201.711499329834,246.59940219970704Q198.13353932983398,247.10863219970702,194.50664932983398,247.53487219970702Q190.879739329834,247.96111219970703,187.212639329834,248.30333219970703Q183.54553932983399,248.64557219970703,179.84706932983397,248.90296219970702Q176.148619329834,249.16038219970704,172.42766932983398,249.33231219970702Q168.706719329834,249.50425219970703,164.97228932983398,249.59032219970703Q161.23784932983398,249.67640219970704,157.498899329834,249.67641219970704Q153.75994932983397,249.67640219970704,150.025509329834,249.59032219970703Q146.291069329834,249.50425219970703,142.57012932983397,249.33231219970702Q138.849179329834,249.16038219970704,135.15070932983397,248.90296219970702Q131.452239329834,248.64557219970703,127.78513932983398,248.30333219970703Q124.11803932983399,247.96111219970703,120.49114932983399,247.53487219970702Q116.86424932983398,247.10863219970702,113.28630932983398,246.59940219970704Q109.70835932983398,246.09017219970704,106.18797932983398,245.49918219970704Q102.66759132983398,244.90819219970703,99.21326032983399,244.23688219970703Q95.75892232983398,243.56556219970702,92.37896332983398,242.81554219970704Q88.99900432983398,242.06553219970704,85.70154932983398,241.23859219970703Q82.40409432983398,240.41166219970702,79.19709432983399,239.50980219970702Q75.99010132983399,238.60795219970703,72.88128232983398,237.63334219970704Q69.77246432983398,236.65876219970704,66.76931332983398,235.61376219970703Q63.76617032983398,234.56878219970702,60.875927329833985,233.45591219970703Q57.98568332983398,232.34304219970704,55.215309329833985,231.16497219970705Q52.44493532983398,229.98690219970703,49.80110132983398,228.74647219970703Q47.15726832983398,227.50605219970703,44.646347329833986,226.20626219970703Q42.135425329833986,224.90646219970705,39.76346932983398,223.55043219970702Q37.39150632983399,222.194392199707,35.16422032983398,220.78538219970704Q32.936933329833984,219.37637219970702,30.859687329833985,217.91778219970703Q28.782444329833986,216.45920219970702,26.860241329833983,214.95455219970705Q24.938041329833986,213.44990219970703,23.175516329833986,211.90281219970703Q21.412990329833985,210.35572219970703,19.814385329833982,208.76992219970703Q18.215781329833984,207.18412219970702,16.784949329833985,205.56343119970703Q15.354118329833984,203.94273419970705,14.094505329833984,202.29105419970705Q12.834894229833985,200.63938119970703,11.749536529833986,198.96069319970704Q10.664177929833984,197.28200519970704,9.755689129833986,195.58035319970702Q8.847199929833984,193.87870019970703,8.117768329833984,192.15818019970703Q7.388336629833985,190.437660199707,6.839719729833984,188.70242319970703Q6.2911029298339844,186.96718619970704,5.924622359833984,185.22141219970703Q5.558141829833985,183.47562419970703,5.374680579833984,181.72351119970705Q5.191219329833984,179.97139719970704,5.191219329833984,178.21717819970704Q5.191219329833984,176.46295119970705,5.374680579833984,174.71083819970704Q5.558141829833985,172.95873219970701,5.924622359833984,171.21295119970705Q6.2911029298339844,169.46717119970702,6.839719729833984,167.73192619970703Q7.388336629833985,165.99668919970702,8.117768329833984,164.27616919970703Q8.847199929833984,162.55564919970703,9.755688629833983,160.85399619970704Q10.664177929833984,159.15234419970704,11.749536529833986,157.47365619970702Q12.834894229833985,155.79496019970702,14.094506229833984,154.14328019970702Q15.354118329833984,152.49160019970702,16.784949329833985,150.87090719970703Q18.215781329833984,149.25021319970705,19.814386329833987,147.66440919970702Q21.412990329833985,146.07861319970704,23.175516329833986,144.53152419970704Q24.938041329833986,142.98443219970704,26.860243329833985,141.47978219970702Q28.782444329833986,139.97513219970705,30.859687329833985,138.51655019970704Q32.936933329833984,137.05796419970704,35.16421932983398,135.64895819970704Q37.39150632983399,134.23995219970703,39.76346632983398,132.88391719970704Q42.135425329833986,131.52788119970702,44.646347329833986,130.22808419970704Q47.15726832983398,128.92829119970702,49.80110132983398,127.68786619970703Q52.44493532983398,126.44744119970703,55.21530532983398,125.26937519970703Q57.98568332983398,124.09130819970703,60.875927329833985,122.97843919970703Q63.76617032983398,121.86557019970704,66.76931732983398,120.82057919970703Q69.77246432983398,119.77558919970703,72.88128232983398,118.80099319970704Q75.99010132983399,117.82639819970703,79.19710132983398,116.92454619970704Q82.40409432983398,116.02269359970703,85.70154932983398,115.19575789970703Q88.99900432983398,114.36882109970703,92.37897132983399,113.61879299970703Q95.75893832983398,112.86876489970703,99.21326832983398,112.19745159970704Q102.66759832983398,111.52613829970703,106.18798932983398,110.93515779970703Q109.70836932983399,110.34417719970703,113.28630932983398,109.83495239970703Q116.86424932983398,109.32572749970703,120.49114932983399,108.89948559970703Q124.11803932983399,108.47324359970703,127.78513932983398,108.13101109970704Q131.452239329834,107.78877879970703,135.15071932983398,107.53138041970703Q138.849189329834,107.27398204970703,142.57013932983398,107.10203790970704Q146.291069329834,106.93009373970703,150.025509329834,106.84401796770703Q153.75994932983397,106.75794219970703,157.498899329834,106.75794219970703Q161.23784932983398,106.75794219970703,164.97228932983398,106.84401796770703Q168.706719329834,106.93009373970703,172.42766932983398,107.10203790970704Q176.148619329834,107.27398204970703,179.84706932983397,107.53138041970703Q183.54553932983399,107.78877879970703,187.212639329834,108.13101109970704Q190.879739329834,108.47324359970703,194.506629329834,108.89948559970703Q198.13353932983398,109.32572749970703,201.711479329834,109.83495239970703Q205.28942932983398,110.34417719970703,208.809809329834,110.93515779970703Q212.33017932983398,111.52613829970703,215.78450932983398,112.19745159970704Q219.23883932983398,112.86876489970703,222.618799329834,113.61879349970704Q225.99877932983398,114.36882109970703,229.29622932983398,115.19575789970703Q232.59368932983398,116.02269359970703,235.800669329834,116.92454619970704Q239.007689329834,117.82639819970703,242.11649932983397,118.80099319970704Q245.22530932983398,119.77558919970703,248.228479329834,120.82057919970703Q251.231629329834,121.86557019970704,254.121869329834,122.97843919970703Q257.01210932983395,124.09130819970703,259.782469329834,125.26937519970703Q262.552849329834,126.44744119970703,265.196679329834,127.68786619970703Q267.840509329834,128.92829119970702,270.35143932983397,130.22808419970704Q272.86235932983396,131.52788119970702,275.234309329834,132.88391719970704Q277.60625932983396,134.23995219970703,279.83351932983396,135.64895819970704Q282.060789329834,137.05796619970704,284.138059329834,138.51655219970704Q286.215299329834,139.97513619970704,288.13750932983396,141.47978619970704Q290.05971932983397,142.98443619970703,291.82225932983397,144.53152419970704Q293.584769329834,146.07861319970704,295.183379329834,147.66441319970704Q296.781979329834,149.25021319970705,298.212829329834,150.87091019970703Q299.643669329834,152.49160019970702,300.903259329834,154.14328419970704Q302.162899329834,155.79496419970704,303.24825932983396,157.47365619970702Q304.333619329834,159.15234419970704,305.24208932983396,160.85399619970704Q306.15056932983396,162.55564919970703,306.879999329834,164.27616919970703Q307.609429329834,165.99668919970702,308.158049329834,167.73193019970702Q308.706659329834,169.46717119970702,309.073179329834,171.21295119970705Q309.43962932983396,172.95873219970701,309.62309932983396,174.71083819970704Q309.806579329834,176.46295119970705,309.806579329834,178.21717819970704Z" fill="url(#master_svg1_604_037628)" fill-opacity="1"/></g><path d="M157.8629608154297,51.28187847137451L215.31079881542968,64.47840447137452L215.31079881542968,127.82587747137451L168.8281968154297,151.52799847137453L157.8629608154297,146.92954547137452L157.8629608154297,51.28187847137451Z" fill-rule="evenodd" fill="#FFFFFF" fill-opacity="1"/><path d="M157.8644211276797,50.75099754333496L222.16270484667967,63.65198554333496L215.29175584667968,127.79012854333496L168.8091548466797,151.49225754333497L157.8439178466797,146.89378954333495L157.8644211276797,50.75099754333496Z" fill-rule="evenodd" fill="url(#master_svg2_605_028628)" fill-opacity="1"/><path d="M112.45956039428711,62.82861347137451L157.8629763942871,51.28187847137451L157.8629763942871,146.9295534713745L112.45956039428711,126.2605544713745L112.45956039428711,62.82861347137451Z" fill-rule="evenodd" fill="url(#master_svg3_605_028678)" fill-opacity="1"/><path d="M112.45956039428711,62.82861347137451L157.8629763942871,51.28187847137451L157.8629763942871,146.9295534713745L112.45956039428711,126.2605544713745L112.45956039428711,62.82861347137451Z" fill-rule="evenodd" fill="#FFFFFF" fill-opacity="1"/><path d="M106.03180408477783,63.00693554333496L157.86409808477782,50.75099754333496L157.84504408477784,146.89378954333495L112.44164278477783,126.22479854333496L106.03180408477783,63.00693554333496Z" fill-rule="evenodd" fill="url(#master_svg4_605_028649)" fill-opacity="1"/><path d="M106.22549247741699,62.82861518859863L106.22549247741699,125.21291118859864L168.82820747741698,151.52801718859865L168.82820747741698,80.73954618859864L106.22549247741699,62.82861518859863Z" fill-rule="evenodd" fill="url(#master_svg5_605_028671)" fill-opacity="1"/><path d="M106.16507629638672,62.85701370239258L91.73076629638672,87.82874070239258L154.33240929638671,114.14348270239257L168.76779129638672,80.76794470239258L106.16507629638672,62.85701370239258Z" fill-rule="evenodd" fill="url(#master_svg7_605_028660)" fill-opacity="1" filter="url(#master_svg6_605_028666)"/><path d="M168.8282012939453,80.739543890625L168.8282012939453,151.52799989062498L222.2211452939453,124.331946890625L222.2211452939453,63.730712890625L168.8282012939453,80.739543890625Z" fill-rule="evenodd" fill="url(#master_svg8_605_028692)" fill-opacity="1"/><path d="M168.8666763305664,80.76916501489258L186.6253563305664,114.83484601489258L238.8461453305664,89.51963801489258L222.2596203305664,63.76033401489258L168.8666763305664,80.76916501489258Z" fill-rule="evenodd" fill="url(#master_svga_605_028660)" fill-opacity="1" filter="url(#master_svg9_605_028658)"/><g><path d="M180.01456877905272,40.517714486279296L179.26731077905274,41.0991923862793L178.45067977905273,40.0893637862793C178.94589777905273,39.702272686279294,179.45272677905274,39.309621286279295,179.97116677905274,38.9114083862793L181.56132677905273,37.7000846862793L182.36101677905273,38.7229344862793C182.09157777905273,38.926549186279296,181.82504677905274,39.128765786279295,181.56142277905275,39.3295842862793L180.01456877905272,40.517714486279296ZM173.83408777905274,45.5201682862793L173.27001577905273,46.00444408627929L172.40380477905273,45.0353693862793C173.34011077905274,44.2264165862793,174.34333277905273,43.385503286279295,175.41350177905272,42.5125846862793L176.25136977905274,43.505455986279294L175.01053477905273,44.528329886279295L173.83408777905274,45.5201682862793ZM167.62306177905273,51.353003686279294C168.41301277905274,50.501992686279294,169.32290077905273,49.592488686279296,170.35256177905273,48.624858686279296L169.44585777905274,47.6922721862793C168.39554777905272,48.679307686279294,167.46491877905274,49.60954468627929,166.65380477905273,50.4833546862793L167.62306177905273,51.353003686279294ZM163.81058407905275,57.262056686279294L163.76781747905272,57.5652846862793L162.46630477905273,57.4008906862793L162.51270337905274,57.0719256862793C162.66805167905272,56.0495186862793,163.20787147905273,54.89020368627929,164.12738987905274,53.5633656862793L165.21181677905273,54.2897756862793C164.39397337905274,55.46989868627929,163.93221287905274,56.46157468627929,163.81058407905275,57.262056686279294ZM168.04501177905274,57.5758776862793C169.27400577905274,57.22715968627929,170.53106477905274,57.3668006862793,171.44476277905272,57.9003376862793L172.11485477905273,56.7911316862793C170.88326877905274,56.071969686279296,169.25172277905273,55.8907276862793,167.68114877905273,56.336370686279295L168.04501177905274,57.5758776862793ZM162.79105667905273,61.779552686279295C162.67671207905272,61.929197686279295,162.56245037905273,62.0826206862793,162.44827557905273,62.23982468627929L161.38036727905273,61.49013368627929C162.25799707905273,60.28175768627929,163.14932537905273,59.27348368627929,164.05621627905273,58.4657096862793L164.93724277905272,59.4217886862793C164.36196137905273,59.9341946862793,163.78797717905275,60.540683686279294,163.21590227905273,61.24138868627929L162.66161727905273,61.4067726862793C162.70113177905273,61.5347806862793,162.74431137905273,61.659047686279294,162.79105667905273,61.779552686279295ZM162.79105667905273,61.779552686279295C163.37626267905273,63.28819068627929,164.52046007905273,64.2077026862793,166.03219177905274,64.5011976862793L166.28640777905272,63.23554068627929C165.12400777905273,63.009866686279295,164.30899427905274,62.301090686279295,163.91727447905274,61.0321156862793L163.21590227905273,61.24138868627929C163.07416627905275,61.414993686279296,162.93254847905274,61.5943796862793,162.79105667905273,61.779552686279295ZM169.79833577905274,62.7086986862793C171.08791777905273,62.1451706862793,172.10809477905275,61.28702568627929,172.43986477905273,60.5164906862793L173.64826377905274,61.0194036862793C173.16798577905274,62.1348516862793,171.89838977905274,63.202798686279294,170.33130577905274,63.8875926862793L169.79833577905274,62.7086986862793ZM158.67627667905273,68.89077768627929C159.25001427905272,67.6513056862793,159.82759477905273,66.5106796862793,160.40882397905273,65.4690076862793L159.25835327905273,64.8485226862793C158.66085477905273,65.9193516862793,158.06877777905274,67.08860768627929,157.48192977905273,68.3563996862793L158.67627667905273,68.89077768627929ZM155.79859397905273,76.0330166862793C156.24920477905275,74.7672576862793,156.70253607905272,73.56514768627929,157.15855027905275,72.4267116862793L155.93760637905274,71.9539906862793C155.47527789905274,73.1081886862793,155.01610639905275,74.32578668627929,154.56005477905273,75.6068266862793L155.79859397905273,76.0330166862793Z" fill-rule="evenodd" fill="url(#master_svgb_605_028634)" fill-opacity="1"/></g><path d="M188.77076148986816,22.188586235046387L188.77076148986816,37.105582235046384L198.00176138986816,27.620459035046387L188.77076148986816,22.188586235046387Z" fill-rule="evenodd" fill="url(#master_svgc_605_028708)" fill-opacity="1"/><path d="M219.67711048986817,6.887636184692383L188.77076148986816,22.188586184692383L188.77076148986816,24.235109184692384L195.22870108986817,30.439964184692382L219.67711048986817,6.887636184692383Z" fill-rule="evenodd" fill="url(#master_svgd_605_028717)" fill-opacity="1"/><path d="M219.6771089663086,6.887636184692383L178.5852279663086,14.354610884692383L188.77076196630858,22.188586184692383L219.6771089663086,6.887636184692383Z" fill-rule="evenodd" fill="#E4E6E9" fill-opacity="1"/><path d="M219.6771094442749,6.887636184692383L207.2664904442749,31.833677184692384L193.2899694442749,25.594070184692384L219.6771094442749,6.887636184692383Z" fill-rule="evenodd" fill="url(#master_svge_605_028699)" fill-opacity="1"/><path d="M193.2912058648926,25.594070434570312L188.81892776489258,37.157312434570315L198.54004666489257,27.52921883457031L193.2912058648926,25.594070434570312Z" fill-rule="evenodd" fill="url(#master_svgf_605_028702)" fill-opacity="1"/></svg>