<svg xmlns="http://www.w3.org/2000/svg" xmlns:xlink="http://www.w3.org/1999/xlink" fill="none" version="1.1" width="24" height="24" viewBox="0 0 24 24"><defs><mask id="master_svg0_607_033030" style="mask-type:alpha" maskUnits="userSpaceOnUse" x="0" y="0" width="24" height="25"><rect x="0" y="0" width="24" height="24" rx="12" fill="#FFFFFF" fill-opacity="1" style="mix-blend-mode:passthrough"/></mask></defs><rect x="0" y="0" width="24" height="24" rx="12" fill="#DBDEFD" fill-opacity="1" style="mix-blend-mode:passthrough"/><g mask="url(#master_svg0_607_033030)"><path d="M13.6253958,13.9924335L10.3746028,13.9924335C7.3691987999999995,13.9715519,4.025706768,17.395296000000002,4,20.40625L4,20.726562C4,22.286793,7.3070641,25,10.375,25L13.625,25C16.571030999999998,25,20,22.286793,20,20.726562L20,20.40625C19.973736000000002,17.395531,16.630573,13.9731293,13.6253958,13.9934521L13.6253958,13.9924335ZM11.837459599999999,13.5792217C14.193484,13.5428181,16.077421,11.606152999999999,16.053102000000003,9.2455931C16.028787,6.8850327,14.10535,4.987737643,11.749076800000001,5.000059477803C9.3928041,5.012381345,7.489243500000001,6.9296886,7.4895229,9.2903748C7.5057259,11.6785693,9.453732500000001,13.6001034,11.837459599999999,13.5792217Z" fill="#7A37FE" fill-opacity="0.699999988079071" style="mix-blend-mode:passthrough"/></g></svg>