<svg xmlns="http://www.w3.org/2000/svg" xmlns:xlink="http://www.w3.org/1999/xlink" fill="none" version="1.1" width="315" height="169" viewBox="0 0 315 169"><defs><mask id="master_svg0_604_037755" style="mask-type:luminance" maskUnits="userSpaceOnUse" x="0" y="0" width="315" height="249.67642211914062"><path d="M0,0L315,0L315,169L0,169L0,0Z" fill="#FFFFFF" fill-opacity="1"/></mask><linearGradient x1="0.5" y1="0.01746314764022827" x2="0.5" y2="0.5" id="master_svg1_604_037628"><stop offset="0%" stop-color="#E5E9EF" stop-opacity="1"/><stop offset="100%" stop-color="#FFFFFF" stop-opacity="0"/></linearGradient><linearGradient x1="0.5067450404167175" y1="-0.10330502688884735" x2="0.49653600486583854" y2="0.9342777628040183" id="master_svg2_604_037621"><stop offset="2.727312408387661%" stop-color="#F3F4F6" stop-opacity="1"/><stop offset="100%" stop-color="#E4E6E9" stop-opacity="1"/></linearGradient><linearGradient x1="1" y1="0.20003043115139008" x2="-0.09648515007243025" y2="0.4022266456479521" id="master_svg3_604_037636"><stop offset="0.7142857182770967%" stop-color="#EEEEEE" stop-opacity="1"/><stop offset="98.57142567634583%" stop-color="#DCDCDC" stop-opacity="1"/></linearGradient><linearGradient x1="1" y1="0.20003043115139008" x2="-0.10387869906220139" y2="0.43277956407164886" id="master_svg4_604_037646"><stop offset="0.7142857182770967%" stop-color="#EEEEEE" stop-opacity="1"/><stop offset="98.57142567634583%" stop-color="#DCDCDC" stop-opacity="1"/></linearGradient><linearGradient x1="1" y1="0.20003043115139008" x2="-0.10387869000465785" y2="0.4327795219852304" id="master_svg5_604_037646"><stop offset="0.7142857182770967%" stop-color="#EEEEEE" stop-opacity="1"/><stop offset="98.57142567634583%" stop-color="#DCDCDC" stop-opacity="1"/></linearGradient></defs><g mask="url(#master_svg0_604_037755)"><path d="M309.806579329834,178.21718582910157Q309.806579329834,179.97140482910157,309.62309932983396,181.72351882910158Q309.43962932983396,183.47563182910156,309.073179329834,185.22141982910156Q308.706659329834,186.96719382910157,308.158049329834,188.70242282910158Q307.609429329834,190.43765982910156,306.879999329834,192.15817982910156Q306.15056932983396,193.87869982910155,305.242059329834,195.58035282910157Q304.333579329834,197.28201282910157,303.248229329834,198.96070082910157Q302.162869329834,200.63938882910156,300.903259329834,202.29106182910158Q299.643669329834,203.94274182910158,298.212829329834,205.56343882910156Q296.781979329834,207.18412982910155,295.183379329834,208.76992982910156Q293.584769329834,210.35572982910156,291.82225932983397,211.90281982910156Q290.05971932983397,213.44990982910156,288.13750932983396,214.95456982910156Q286.215299329834,216.45920982910155,284.138059329834,217.91779982910157Q282.060789329834,219.37638982910158,279.83351932983396,220.78539982910155Q277.60625932983396,222.19440982910157,275.234309329834,223.55044982910158Q272.86235932983396,224.90647982910156,270.35143932983397,226.20626982910156Q267.840509329834,227.50605982910156,265.196679329834,228.74648982910156Q262.552849329834,229.98690982910156,259.782479329834,231.16497982910158Q257.01210932983395,232.34304982910157,254.121849329834,233.45591982910156Q251.231609329834,234.56878982910155,248.22846932983398,235.61376982910156Q245.22530932983398,236.65876982910157,242.11649932983397,237.63334982910158Q239.007689329834,238.60795982910156,235.800669329834,239.50980982910156Q232.59368932983398,240.41164982910155,229.29622932983398,241.23858982910156Q225.99877932983398,242.06551982910156,222.618799329834,242.81554982910157Q219.23883932983398,243.56556982910155,215.78450932983398,244.23688982910156Q212.33017932983398,244.90819982910156,208.809809329834,245.49918982910157Q205.28942932983398,246.09017982910157,201.711499329834,246.59940982910157Q198.13353932983398,247.10863982910155,194.50664932983398,247.53487982910156Q190.879739329834,247.96111982910156,187.212639329834,248.30333982910156Q183.54553932983399,248.64557982910156,179.84706932983397,248.90296982910155Q176.148619329834,249.16038982910158,172.42766932983398,249.33231982910155Q168.706719329834,249.50425982910156,164.97228932983398,249.59032982910156Q161.23784932983398,249.67640982910157,157.498899329834,249.67641982910158Q153.75994932983397,249.67640982910157,150.025509329834,249.59032982910156Q146.291069329834,249.50425982910156,142.57012932983397,249.33231982910155Q138.849179329834,249.16038982910158,135.15070932983397,248.90296982910155Q131.452239329834,248.64557982910156,127.78513932983398,248.30333982910156Q124.11803932983399,247.96111982910156,120.49114932983399,247.53487982910156Q116.86424932983398,247.10863982910155,113.28630932983398,246.59940982910157Q109.70835932983398,246.09017982910157,106.18797932983398,245.49918982910157Q102.66759132983398,244.90819982910156,99.21326032983399,244.23688982910156Q95.75892232983398,243.56556982910155,92.37896332983398,242.81554982910157Q88.99900432983398,242.06553982910157,85.70154932983398,241.23859982910156Q82.40409432983398,240.41166982910156,79.19709432983399,239.50980982910156Q75.99010132983399,238.60795982910156,72.88128232983398,237.63334982910158Q69.77246432983398,236.65876982910157,66.76931332983398,235.61376982910156Q63.76617032983398,234.56878982910155,60.875927329833985,233.45591982910156Q57.98568332983398,232.34304982910157,55.215309329833985,231.16497982910158Q52.44493532983398,229.98690982910156,49.80110132983398,228.74647982910156Q47.15726832983398,227.50605982910156,44.646347329833986,226.20626982910156Q42.135425329833986,224.90646982910158,39.76346932983398,223.55043982910155Q37.39150632983399,222.19439982910154,35.16422032983398,220.78538982910158Q32.936933329833984,219.37637982910155,30.859687329833985,217.91778982910157Q28.782444329833986,216.45920982910155,26.860241329833983,214.95455982910158Q24.938041329833986,213.44990982910156,23.175516329833986,211.90281982910156Q21.412990329833985,210.35572982910156,19.814385329833982,208.76992982910156Q18.215781329833984,207.18412982910155,16.784949329833985,205.56343882910156Q15.354118329833984,203.94274182910158,14.094505329833984,202.29106182910158Q12.834894229833985,200.63938882910156,11.749536529833986,198.96070082910157Q10.664177929833984,197.28201282910157,9.755689129833986,195.58036082910155Q8.847199929833984,193.87870782910156,8.117768329833984,192.15818782910156Q7.388336629833985,190.43766782910154,6.839719729833984,188.70243082910156Q6.2911029298339844,186.96719382910157,5.924622359833984,185.22141982910156Q5.558141829833985,183.47563182910156,5.374680579833984,181.72351882910158Q5.191219329833984,179.97140482910157,5.191219329833984,178.21718582910157Q5.191219329833984,176.46295882910158,5.374680579833984,174.71084582910157Q5.558141829833985,172.95873982910155,5.924622359833984,171.21295882910158Q6.2911029298339844,169.46717882910156,6.839719729833984,167.73193382910156Q7.388336629833985,165.99669682910155,8.117768329833984,164.27617682910156Q8.847199929833984,162.55565682910157,9.755688629833983,160.85400382910157Q10.664177929833984,159.15235182910158,11.749536529833986,157.47366382910155Q12.834894229833985,155.79496782910155,14.094506229833984,154.14328782910155Q15.354118329833984,152.49160782910155,16.784949329833985,150.87091482910157Q18.215781329833984,149.25022082910158,19.814386329833987,147.66441682910155Q21.412990329833985,146.07862082910157,23.175516329833986,144.53153182910157Q24.938041329833986,142.98443982910158,26.860243329833985,141.47978982910155Q28.782444329833986,139.97513982910158,30.859687329833985,138.51655782910157Q32.936933329833984,137.05797182910158,35.16421932983398,135.64896582910157Q37.39150632983399,134.23995982910156,39.76346632983398,132.88392482910157Q42.135425329833986,131.52788882910156,44.646347329833986,130.22809182910157Q47.15726832983398,128.92829882910155,49.80110132983398,127.68787382910156Q52.44493532983398,126.44744882910156,55.21530532983398,125.26938282910156Q57.98568332983398,124.09131582910156,60.875927329833985,122.97844682910156Q63.76617032983398,121.86557782910157,66.76931732983398,120.82058682910156Q69.77246432983398,119.77559682910156,72.88128232983398,118.80100082910157Q75.99010132983399,117.82640582910156,79.19710132983398,116.92455382910157Q82.40409432983398,116.02270122910156,85.70154932983398,115.19576552910156Q88.99900432983398,114.36882872910157,92.37897132983399,113.61880062910156Q95.75893832983398,112.86877252910156,99.21326832983398,112.19745922910157Q102.66759832983398,111.52614592910156,106.18798932983398,110.93516542910156Q109.70836932983399,110.34418482910156,113.28630932983398,109.83496002910157Q116.86424932983398,109.32573512910156,120.49114932983399,108.89949322910157Q124.11803932983399,108.47325122910156,127.78513932983398,108.13101872910157Q131.452239329834,107.78878642910156,135.15071932983398,107.53138804910157Q138.849189329834,107.27398967910156,142.57013932983398,107.10204553910157Q146.291069329834,106.93010136910156,150.025509329834,106.84402559710156Q153.75994932983397,106.75794982910156,157.498899329834,106.75794982910156Q161.23784932983398,106.75794982910156,164.97228932983398,106.84402559710156Q168.706719329834,106.93010136910156,172.42766932983398,107.10204553910157Q176.148619329834,107.27398967910156,179.84706932983397,107.53138804910157Q183.54553932983399,107.78878642910156,187.212639329834,108.13101872910157Q190.879739329834,108.47325122910156,194.506629329834,108.89949322910157Q198.13353932983398,109.32573512910156,201.711479329834,109.83496002910157Q205.28942932983398,110.34418482910156,208.809809329834,110.93516542910156Q212.33017932983398,111.52614592910156,215.78450932983398,112.19745922910157Q219.23883932983398,112.86877252910156,222.618799329834,113.61880112910157Q225.99877932983398,114.36882872910157,229.29622932983398,115.19576552910156Q232.59368932983398,116.02270122910156,235.800669329834,116.92455382910157Q239.007689329834,117.82640582910156,242.11649932983397,118.80100082910157Q245.22530932983398,119.77559682910156,248.228479329834,120.82058682910156Q251.231629329834,121.86557782910157,254.121869329834,122.97844682910156Q257.01210932983395,124.09131582910156,259.782469329834,125.26938282910156Q262.552849329834,126.44744882910156,265.196679329834,127.68787382910156Q267.840509329834,128.92829882910155,270.35143932983397,130.22809182910157Q272.86235932983396,131.52788882910156,275.234309329834,132.88392482910157Q277.60625932983396,134.23995982910156,279.83351932983396,135.64896582910157Q282.060789329834,137.05797382910157,284.138059329834,138.51655982910157Q286.215299329834,139.97514382910157,288.13750932983396,141.47979382910157Q290.05971932983397,142.98444382910156,291.82225932983397,144.53153182910157Q293.584769329834,146.07862082910157,295.183379329834,147.66442082910157Q296.781979329834,149.25022082910158,298.212829329834,150.87091782910156Q299.643669329834,152.49160782910155,300.903259329834,154.14329182910157Q302.162899329834,155.79497182910157,303.24825932983396,157.47366382910155Q304.333619329834,159.15235182910158,305.24208932983396,160.85400382910157Q306.15056932983396,162.55565682910157,306.879999329834,164.27617682910156Q307.609429329834,165.99669682910155,308.158049329834,167.73193782910155Q308.706659329834,169.46717882910156,309.073179329834,171.21295882910158Q309.43962932983396,172.95873982910155,309.62309932983396,174.71084582910157Q309.806579329834,176.46295882910158,309.806579329834,178.21718582910157Z" fill="url(#master_svg1_604_037628)" fill-opacity="1"/></g><rect x="112.49999237060547" y="35.99888610839844" width="91.49999237060547" height="104.57142639160156" rx="8" fill="url(#master_svg2_604_037621)" fill-opacity="1"/><g style="opacity:0.800000011920929;"><rect x="125.99999237060547" y="47.99888610839844" width="43" height="5" rx="2.5" fill="#FFFFFF" fill-opacity="1"/><rect x="125.99999237060547" y="59.99888610839844" width="30" height="5" rx="2.5" fill="#FFFFFF" fill-opacity="1"/><rect x="125.99999237060547" y="71.99888610839844" width="20" height="5" rx="2.5" fill="#FFFFFF" fill-opacity="1"/></g><g style="opacity:0.800000011920929;"><rect x="125.99999237060547" y="103.49888610839844" width="20" height="5" rx="2.5" fill="#FFFFFF" fill-opacity="1"/><rect x="125.99999237060547" y="113.49888610839844" width="30" height="5" rx="2.5" fill="#FFFFFF" fill-opacity="1"/><rect x="125.99999237060547" y="123.49888610839844" width="43" height="5" rx="2.5" fill="#FFFFFF" fill-opacity="1"/></g><path d="M188.917953491211,30.934780701049803C188.917953491211,30.934780701049803,197.44755559121094,9.954525001049806,217.67518049121094,19.991425301049805C217.70530149121095,19.999449001049804,213.29570049121094,27.619002701049805,205.95655049121095,30.444694701049805C199.03309049121094,33.1103397010498,188.91795349121102,30.934780701049803,188.917953491211,30.934780701049803Z" fill-rule="evenodd" fill="url(#master_svg3_604_037636)" fill-opacity="1" transform="matrix(0.9123110771179199,-0.40949782729148865,0.40949779748916626,0.9123110771179199,9.493034160626962,78.87608277664322)" style="opacity:0.800000011920929;"/><path d="M110.38530731201175,39.711537376049804C110.38530731201175,39.711537376049804,115.72420831201171,25.669436476049803,128.3852083120117,32.38714157604981C128.40406031201172,32.392512076049805,125.64397531201172,37.49228477604981,121.05021031201171,39.3835239760498C116.71663621201172,41.1676415760498,110.38530731201178,39.711537376049804,110.38530731201175,39.711537376049804Z" fill-rule="evenodd" fill="url(#master_svg4_604_037646)" fill-opacity="1" transform="matrix(-0.5299192667007446,-0.8480481505393982,0.8480480313301086,-0.5299193263053894,142.95811767947237,140.3774724115575)" style="opacity:0.800000011920929;"/><path d="M102.53850555419925,110.52733613339844C102.53850555419925,110.52733613339844,106.98758985419921,98.82558293339844,117.53842555419922,104.42367103339843C117.55413555419922,104.42814633339843,115.25406255419922,108.67795753339844,111.42592625419923,110.25398973339844C107.81461385419922,111.74075503339844,102.53850555419928,110.52733613339844,102.53850555419925,110.52733613339844Z" fill-rule="evenodd" fill="url(#master_svg5_604_037646)" fill-opacity="1" transform="matrix(-0.5299192070960999,-0.8480481505393982,0.8480480909347534,-0.5299193263053894,69.60546854626364,244.39713462632199)" style="opacity:0.800000011920929;"/><ellipse cx="201.74998378753662" cy="104.24888610839844" rx="14.249999046325684" ry="14.25" fill-opacity="0" stroke-opacity="1" stroke="#DEDFE0" fill="none" stroke-width="3"/><rect x="215.2974090576172" y="115.49888610839844" width="9" height="2.999999761581421" rx="1.4999998807907104" fill="#BBBDC0" fill-opacity="1" transform="matrix(0.6430766582489014,0.765801727771759,-0.765801727771759,0.6430767774581909,165.29391724872312,-123.65089321130745)"/></svg>