<svg xmlns="http://www.w3.org/2000/svg" xmlns:xlink="http://www.w3.org/1999/xlink" fill="none" version="1.1" width="16" height="16" viewBox="0 0 16 16"><defs><clipPath id="master_svg0_607_032902"><rect x="0" y="0" width="16" height="16" rx="0"/></clipPath></defs><g clip-path="url(#master_svg0_607_032902)"><path d="M12.979333,8.455466699999999L5.9335442,8.455466699999999C5.6482983,8.455466699999999,5.4170537,8.2242365,5.4170537,7.9389763C5.4170537,7.6537304,5.6482983,7.4224858,5.9335442,7.4224858L12.978043,7.4224858L12.69578,7.2019734C12.470992,7.0263524,12.431136,6.7017527,12.606757,6.4769788C12.782364,6.2522054,13.106963,6.2123489,13.331738,6.3879561L14.772329,7.5134749C14.800481,7.5328751,14.826627,7.5550356,14.850377,7.5796285C15.031134,7.761548,15.052497,8.053852599999999,14.890476,8.2612238C14.848278,8.315380600000001,14.795672,8.3605509,14.735759,8.3940768L13.327605,9.4942589C13.102817,9.6698656,12.778232,9.630024,12.60261,9.4052362C12.427004,9.1804619,12.466845,8.8558764,12.691633,8.680255899999999L12.979333,8.455466699999999ZM13.398895,3.6468267C13.575549,3.8707829,13.537201,4.195555000000001,13.31323,4.3722088C13.089259,4.5488627,12.764488,4.5105135,12.587848,4.286542900000001C11.473175,2.8733248,9.7783127,2.0329807,7.9439254,2.0329807C4.6794052,2.0329807,2.0329807,4.6794052,2.0329807,7.9439254C2.0329807,11.208446,4.6794052,13.85487,7.9439254,13.85487C9.7447987,13.85487,11.411928,13.045186,12.528208,11.675669C12.708434,11.454567,13.03378,11.421426,13.254882,11.601639C13.475983,11.781865,13.509124,12.107211,13.328912,12.328312C12.01846,13.936003,10.0586376,14.887851,7.9439254,14.887851C4.1088986,14.887851,1,11.778953,1,7.9439254C1,4.1088986,4.1088986,1,7.9439254,1C10.0980206,1,12.090382,1.9878450600000002,13.398895,3.6468267Z" fill="#4B5563" fill-opacity="1" style="mix-blend-mode:passthrough"/></g></svg>