<svg xmlns="http://www.w3.org/2000/svg" xmlns:xlink="http://www.w3.org/1999/xlink" fill="none" version="1.1" width="24" height="24" viewBox="0 0 24 24"><defs><clipPath id="master_svg0_603_021656"><rect x="4" y="4" width="16" height="16" rx="0"/></clipPath></defs><g><rect x="0" y="0" width="24" height="24" rx="0" fill="#000000" fill-opacity="0" style="mix-blend-mode:passthrough"/><g clip-path="url(#master_svg0_603_021656)"><path d="M20,13.5599995L20,15.962962C20,17.517541,18.739765,18.777777,17.185185,18.777777L6.814814800000001,18.777777C5.2602357,18.777777,4.00000012726122,17.517541,4,15.962962L4,7.814814800000001C3.99999987273878,6.2602357,5.2602354,5.00000012726122,6.814814800000001,5L17.185184,5C18.739764,5.00000012726122,19.999997,6.260235,20,7.814814800000001L20,13.5599995ZM18.814815,12.6340733L18.814815,7.814814800000001C18.814816,6.9147956,18.085205000000002,6.1851853000000006,17.185184,6.185185L6.814814800000001,6.185185C5.9147952,6.185185,5.1851853000000006,6.9147949,5.185185,7.814814800000001L5.185185,15.962962C5.1851845,16.862983,5.9147948,17.592592,6.814814800000001,17.592592L8.054073800000001,17.592592L13.5674076,12.182962400000001C14.410958,11.355699999999999,15.681355,11.143277600000001,16.748148999999998,11.6511116L18.814815,12.6340733ZM18.814815,13.9466648L16.238518,12.7207398C15.620704,12.426981399999999,14.885185,12.5503564,14.397038,13.0296278L9.746666900000001,17.592592L17.185184,17.592592C18.085203,17.592592,18.814814,16.862984,18.814814,15.962962L18.814815,13.9466648ZM8.2962961,12.1111112C9.4421716,12.1116695,10.3713832,11.1829109,10.3713832,10.0370369C10.3713832,8.8911619,9.4421701,7.962403800000001,8.2962961,7.9629633C7.1512122,7.963522,6.2232347,8.8919528,6.2232347,10.0370369C6.2232344,11.1821208,7.1512122,12.1105518,8.2962961,12.1111112ZM8.2962961,10.9259262C7.8053761,10.9259248,7.4074068,10.527957,7.4074068,10.0370369C7.4074068,9.546117299999999,7.8053761,9.1481476,8.2962961,9.1481481C8.7872152,9.1481476,9.185184,9.546117299999999,9.185184,10.0370369C9.185184,10.527957,8.7872162,10.9259248,8.2962961,10.9259262Z" fill="#222222" fill-opacity="1" style="mix-blend-mode:passthrough"/></g></g></svg>