<svg xmlns="http://www.w3.org/2000/svg" xmlns:xlink="http://www.w3.org/1999/xlink" fill="none" version="1.1" width="24" height="24" viewBox="0 0 24 24"><defs><clipPath id="master_svg0_603_021557"><rect x="3" y="3" width="18" height="18" rx="0"/></clipPath><clipPath id="master_svg1_603_021560"><rect x="3" y="3" width="18" height="18" rx="0"/></clipPath><clipPath id="master_svg2_603_021565"><rect x="3" y="4" width="18" height="15.55443000793457" rx="0"/></clipPath><clipPath id="master_svg3_603_021570"><rect x="3" y="3" width="18" height="18" rx="0"/></clipPath></defs><g><rect x="0" y="0" width="24" height="24" rx="0" fill="#FFFFFF" fill-opacity="0" style="mix-blend-mode:passthrough"/><g clip-path="url(#master_svg0_603_021557)"><g clip-path="url(#master_svg1_603_021560)"><g clip-path="url(#master_svg2_603_021565)"></g><g clip-path="url(#master_svg3_603_021570)"><path d="M8.2962961534729,12.111110704248047C9.4421715534729,12.111669504248047,10.3713831534729,11.182910704248046,10.3713831534729,10.037036704248047C10.3713831534729,8.891161684248047,9.442170153472901,7.962403535838047,8.2962961534729,7.962963104248047C7.151212213472901,7.963521718978047,6.2232346534729,8.891952514248047,6.2232346534729,10.037036704248047C6.22323441505432,11.182120604248047,7.151212213472901,12.110551804248047,8.2962961534729,12.111110704248047ZM8.2962961534729,10.925926004248048C7.805376053472901,10.925924504248048,7.4074068534729,10.527956704248048,7.4074068534729,10.037036704248047C7.4074068534729,9.546117104248047,7.805376053472901,9.148147304248047,8.2962961534729,9.148147804248048C8.787215253472901,9.148147304248047,9.185183953472901,9.546117104248047,9.185183953472901,10.037036704248047C9.185183953472901,10.527956704248048,8.787216153472901,10.925924504248048,8.2962961534729,10.925926004248048Z" fill="#222222" fill-opacity="1" style="mix-blend-mode:passthrough"/><path d="M18.72387405,5.22216304C18.97361375,4.971355569,19.37466905,4.956045657,19.64280225,5.18708363C19.910934949999998,5.41812137,19.95507335,5.81703562,19.74393465,6.1011029L19.67859455,6.176703L16.07859465,9.7767029C15.82879955,10.0270162,15.42816114,10.0421104,15.16024067,9.811302699999999C14.892320156,9.5804949,14.847949982,9.1820345,15.0585345,8.8979435L15.1238742,8.8223431L18.72387405,5.22234288L18.72387405,5.22216304Z" fill="#222222" fill-opacity="1" style="mix-blend-mode:passthrough"/><g><path d="M16.220310784065248,6.101561284065246L7.001561784065247,6.101561284065246Q6.214555884065247,6.101561284065246,5.658058484065247,6.658058484065247Q5.1015613840652465,7.214555384065246,5.1015613840652465,8.001561284065247L5.101561284065246,15.601561784065247Q5.101561284065246,16.388567784065245,5.658058484065247,16.945065784065246Q6.2145548840652465,17.501560784065248,7.001561284065247,17.501560784065248L8.317008184065248,17.501560784065248Q8.362494584065246,17.376593784065246,8.456532584065247,17.282556784065246L8.456446784065246,17.282471784065244L13.504159084065247,12.234826184065247Q14.336100784065247,11.402896084065247,15.510525784065246,11.332434784065246Q16.684949784065246,11.261975384065247,17.610389784065248,11.988469284065246L18.901560784065246,13.002076284065247L18.901560784065246,8.696993984065246L18.90168078406525,8.696993984065246Q18.90168078406525,8.637910984065247,18.913206784065245,8.579963084065247Q18.92473278406525,8.522015184065246,18.94734278406525,8.467429484065246Q18.969952784065246,8.412843784065247,19.002777784065245,8.363718184065247Q19.035603784065245,8.314592484065248,19.077380784065248,8.272814384065246Q19.11915878406525,8.231036284065247,19.168282784065248,8.198211784065247Q19.21740878406525,8.165386784065246,19.271994784065246,8.142776884065247Q19.326580784065246,8.120166884065247,19.384528784065246,8.108640284065247Q19.442477784065247,8.097113984065246,19.501560784065248,8.097113984065246Q19.56064378406525,8.097113984065246,19.618591784065245,8.108640284065247Q19.67653978406525,8.120166884065247,19.731124784065244,8.142776884065247Q19.785710784065245,8.165386784065246,19.83483578406525,8.198211584065247Q19.883961784065246,8.231036284065247,19.925740784065248,8.272814384065246Q19.967518784065245,8.314592484065248,20.000340784065248,8.363717884065247Q20.033165784065247,8.412843784065247,20.055775784065247,8.467429484065246Q20.078385784065247,8.522015184065246,20.089913784065246,8.579963084065247Q20.101441784065248,8.637910984065247,20.101441784065248,8.696993984065246L20.101563784065245,8.696993984065246L20.101563784065245,15.601561784065247Q20.101563784065245,16.885623784065245,19.193592784065245,17.793592784065247Q18.285623784065244,18.701561784065248,17.001560784065248,18.701561784065248L7.001561284065247,18.701561784065248Q5.717499684065246,18.701561784065248,4.809530374065247,17.793592784065247Q3.9015612602652467,16.885623784065245,3.9015612602652467,15.601561784065247L3.9015614390652464,8.001561284065247Q3.9015612006652467,6.717499484065247,4.809530374065247,5.809530374065247Q5.717499284065246,4.901561260265247,7.001561784065247,4.901561260265247L16.220310784065248,4.901561260265247L16.220310784065248,4.901681244365246Q16.27939378406525,4.901681244365246,16.337340784065248,4.913207769065247Q16.395287784065246,4.924734294065247,16.449873784065247,4.947344389065247Q16.504459784065247,4.969954483065247,16.55358578406525,5.0027792440652465Q16.602711784065246,5.035604014065247,16.644490784065248,5.077382024065247Q16.686267784065247,5.119160024065247,16.71909178406525,5.1682857840652465Q16.751915784065247,5.217411514065247,16.774526784065245,5.271997094065247Q16.797137784065246,5.326582674065246,16.808663784065246,5.384530484065246Q16.820191784065244,5.442478244065247,16.820191784065244,5.501561284065247Q16.820191784065244,5.560644264065247,16.808663784065246,5.618592024065246Q16.797137784065246,5.676539774065247,16.77452778406525,5.731125354065247Q16.751916784065244,5.785710934065246,16.719092784065246,5.834836604065247Q16.686267784065247,5.883962394065247,16.644490784065248,5.9257403840652465Q16.602711784065246,5.967518284065246,16.55358578406525,6.000343084065246Q16.504459784065247,6.033167684065247,16.449873784065247,6.055777884065247Q16.395287784065246,6.078388084065247,16.337340784065248,6.0899146840652465Q16.27939378406525,6.101441284065246,16.220310784065248,6.101441284065246L16.220310784065248,6.101561284065246ZM18.901560784065246,14.527669084065247L16.869404784065246,12.932368384065247Q16.302197784065246,12.487095984065245,15.582390784065247,12.530280184065248Q14.862582784065246,12.573464484065248,14.352680784065246,13.083359884065247L9.934422184065246,17.501560784065248L17.001560784065248,17.501560784065248Q17.788567784065247,17.501560784065248,18.345064784065247,16.945065784065246Q18.901560784065246,16.388568784065246,18.901560784065246,15.601561784065247L18.901560784065246,14.527669084065247ZM9.438465284065247,21.914744784065245L17.954661784065244,30.435402784065246L17.954576784065246,30.435486784065247L17.954645784065246,30.435555784065247Q17.996405784065246,30.477349784065247,18.029208784065247,30.526488784065247Q18.062012784065246,30.575627784065247,18.084599784065247,30.630223784065247Q18.10718678406525,30.684819784065247,18.118689784065246,30.742771784065248Q18.13019078406525,30.800724784065245,18.130165784065248,30.859806784065245Q18.130141784065245,30.918888784065246,18.118589784065247,30.976834784065247Q18.10703778406525,31.034775784065246,18.084403784065245,31.089352784065248Q18.061770784065246,31.143929784065246,18.028925784065244,31.193041784065247Q17.996081784065247,31.24215378406525,17.95428578406525,31.283915784065247Q17.912494784065245,31.325671784065246,17.863360784065247,31.358473784065247Q17.814226784065248,31.391274784065246,17.759638784065245,31.413863784065246Q17.705049784065245,31.436447784065248,17.64710478406525,31.447951784065246Q17.589157784065247,31.459454784065247,17.530081784065246,31.459435784065246Q17.471005784065248,31.459416784065247,17.413066784065247,31.447871784065246Q17.355128784065247,31.436327784065245,17.300555784065246,31.413704784065246Q17.245982784065248,31.391079784065248,17.196870784065247,31.358242784065247Q17.147759784065247,31.325407784065245,17.105995784065247,31.283623784065245L17.10591178406525,31.28370978406525L8.589714184065247,22.763050784065246L8.589799084065247,22.762966784065245L8.589730384065247,22.762898784065246Q8.547969984065247,22.721100784065246,8.515165884065247,22.671961784065246Q8.482361884065247,22.622822784065246,8.459774584065247,22.568226784065246Q8.437187784065246,22.513630784065246,8.425685984065247,22.455677784065248Q8.414184184065245,22.397726784065245,8.414209484065246,22.338644784065245Q8.414234284065246,22.279560784065247,8.425785684065247,22.221617784065245Q8.437337084065247,22.163674784065247,8.459970084065247,22.109097784065245Q8.482603184065248,22.054520784065247,8.515449184065247,22.005410784065248Q8.548295184065246,21.956299784065248,8.590090884065248,21.914540784065245Q8.631882284065247,21.872784784065246,8.681016584065247,21.839981784065248Q8.730150384065247,21.807181784065246,8.784739184065247,21.784594784065245Q8.839327484065247,21.762007784065247,8.897273184065247,21.750504784065246Q8.955219384065247,21.738999784065246,9.014296184065246,21.739020784065247Q9.073372984065246,21.73903978406525,9.131311084065246,21.750584784065246Q9.189249184065247,21.762127784065246,9.243822184065246,21.784752784065248Q9.298395284065247,21.807375784065247,9.347506684065246,21.840210784065246Q9.396617984065246,21.873043784065246,9.438380384065248,21.914830784065245L9.438465284065247,21.914744784065245Z" fill-rule="evenodd" fill="#222222" fill-opacity="1"/></g></g></g></g></g></svg>