<svg xmlns="http://www.w3.org/2000/svg" xmlns:xlink="http://www.w3.org/1999/xlink" fill="none" version="1.1" width="24" height="24" viewBox="0 0 24 24"><defs><clipPath id="master_svg0_603_021673"><rect x="4" y="4" width="16" height="16" rx="0"/></clipPath></defs><g><rect x="0" y="0" width="24" height="24" rx="0" fill="#000000" fill-opacity="0" style="mix-blend-mode:passthrough"/><g clip-path="url(#master_svg0_603_021673)"><path d="M11.999999500000001,19.999999000000003C7.5899038,19.999999000000003,4,16.411882,4,11.999999500000001C4,7.5881162,7.5899038,4,11.999999500000001,4C16.410095,4,19.999999000000003,7.5881169,19.999999000000003,11.999999500000001C19.999999000000003,16.411882,16.410095,19.999999000000003,11.999999500000001,19.999999000000003ZM11.999999500000001,5.1043115C8.1974535,5.1043115,5.1043109,8.197454,5.1043109,11.999999500000001C5.1043109,15.802545,8.1974535,18.895689,11.999999500000001,18.895689C15.802546,18.895689,18.895689,15.802546,18.895689,11.999999500000001C18.895689,8.1974535,15.802546,5.1043108,11.999999500000001,5.1043115ZM16.688854,13.3794947L10.6205044,13.3794947L10.6205044,7.5863297L11.7248149,7.5863297L11.7248149,12.2751846L16.688852,12.2751846L16.688854,13.3794947Z" fill="#222222" fill-opacity="1" style="mix-blend-mode:passthrough"/></g></g></svg>