<svg xmlns="http://www.w3.org/2000/svg" xmlns:xlink="http://www.w3.org/1999/xlink" fill="none" version="1.1" width="18" height="18" viewBox="0 0 18 18"><defs><clipPath id="master_svg0_603_022868"><rect x="0" y="0" width="18" height="18" rx="0"/></clipPath></defs><g clip-path="url(#master_svg0_603_022868)"><path d="M15.049395,9.6230054C14.924207,9.891474200000001,14.710958,10.1042867,14.455504,10.2323174L4.7971606,15.106849C4.1119731999999996,15.441895,3.28512967,15.168661,2.93737948,14.497537C2.784317017,14.173428,2.753270149,13.807631,2.859238863,13.46638L3.9155201,10.0277867C4.0122389,9.7129273,4.3030668,9.498021600000001,4.6324576,9.498021600000001L8.3291764,9.498021600000001C8.600895399999999,9.4969277,8.8230824,9.2773967,8.8292856,8.9980683C8.8275671,8.7230682,8.6081138,8.500787299999999,8.3291764,8.4981151L4.6351758,8.4981151C4.3044883,8.4981151,4.0128319999999995,8.281537100000001,3.9172070999999997,7.9649744L2.874863386,4.514115C2.65678525,3.7943963,3.06845725,3.02675569,3.7969413999999997,2.811146259C4.1341289,2.705146313,4.4988946,2.737318158,4.8127851,2.90489626L14.455503,7.7794275C15.129097,8.1234746,15.400191,8.9513183,15.049395,9.6230054Z" fill="#FFFFFF" fill-opacity="1" style="mix-blend-mode:passthrough"/></g></svg>