<svg xmlns="http://www.w3.org/2000/svg" xmlns:xlink="http://www.w3.org/1999/xlink" fill="none" version="1.1" width="16" height="16" viewBox="0 0 16 16"><defs><clipPath id="master_svg0_604_031355"><rect x="0" y="0" width="16" height="16" rx="0"/></clipPath></defs><g clip-path="url(#master_svg0_604_031355)"><path d="M4.333237645,5.443986450000001C4.511362555,5.69867375,4.861362455,5.76117375,5.116050245,5.58304885L7.437925375,3.96117405L7.437925375,11.87054925C7.437925375,12.18148705,7.6894879750000005,12.43304875,8.000425374999999,12.43304875C8.311363175,12.43304875,8.562925374999999,12.18148705,8.562925374999999,11.87054925L8.562925374999999,3.98461155L10.891050374999999,5.59711175C11.148862874999999,5.77523665,11.498863175,5.71429925,11.672300374999999,5.45961185C11.845737475,5.204924549999999,11.778550175,4.85492425,11.520737675,4.67679925L8.309800175,2.45179892C8.305112874999999,2.44867396,8.301987675,2.44711137,8.297300374999999,2.44398642C8.108238175,2.30961132,7.8488626749999995,2.30179882,7.648862875,2.44086146L4.472300525,4.66117385C4.21761322,4.83929875,4.156675339,5.18929865,4.333237645,5.443986450000001Z" fill="#FFFFFF" fill-opacity="1" style="mix-blend-mode:passthrough"/><path d="M14.4375,10C14.126562,10,13.875,10.25156212,13.875,10.5625L13.875,13.5203123C13.875,13.7171869,13.770312,13.875,13.640625,13.875L2.359375,13.875C2.2296875,13.875,2.125,13.7156248,2.125,13.5203123L2.125,10.5625C2.125,10.25156212,1.87343752,10,1.5625,10C1.25156248,10,1,10.25156212,1,10.5625L1,13.640625C1,14.390625,1.609375,15,2.359375,15L13.640625,15C14.390625,15,15,14.390625,15,13.640625L15,10.5625C15,10.25156212,14.748438,10,14.4375,10Z" fill="#FFFFFF" fill-opacity="1" style="mix-blend-mode:passthrough"/></g></svg>